PathFileType	4	(X/Y/Z)	s01c0302.trc
DataRate	CameraRate	NumFrames	NumMarkers	Units	OrigDataRate	OrigDataStartFrame	OrigNumFrames
200	200	4	48	mm	200	500	2000
Frame#	Time	racr			lacr			c7			jug			rlel			rdr			llel			ldr			s2			lic			ric			lasi			rasi			rpsi			lpsi			rgt			lgt			rth1			rth2			rth3			rth4			rlfc			rsh1			rsh2			rsh3			rsh4			rlmal			rmmal			rcal			rtoe			rmt5			lth1			lth2			lth4			lth3			llfc			lsh1			lsh2			lsh3			lsh4			llmal			lmmal			lcal			ltoe			lmt5			SBIKE			LBIKE			RBIKE			
		X1	Y1	Z1	X2	Y2	Z2	X3	Y3	Z3	X4	Y4	Z4	X5	Y5	Z5	X6	Y6	Z6	X7	Y7	Z7	X8	Y8	Z8	X9	Y9	Z9	X10	Y10	Z10	X11	Y11	Z11	X12	Y12	Z12	X13	Y13	Z13	X14	Y14	Z14	X15	Y15	Z15	X16	Y16	Z16	X17	Y17	Z17	X18	Y18	Z18	X19	Y19	Z19	X20	Y20	Z20	X21	Y21	Z21	X22	Y22	Z22	X23	Y23	Z23	X24	Y24	Z24	X25	Y25	Z25	X26	Y26	Z26	X27	Y27	Z27	X28	Y28	Z28	X29	Y29	Z29	X30	Y30	Z30	X31	Y31	Z31	X32	Y32	Z32	X33	Y33	Z33	X34	Y34	Z34	X35	Y35	Z35	X36	Y36	Z36	X37	Y37	Z37	X38	Y38	Z38	X39	Y39	Z39	X40	Y40	Z40	X41	Y41	Z41	X42	Y42	Z42	X43	Y43	Z43	X44	Y44	Z44	X45	Y45	Z45	X46	Y46	Z46	X47	Y47	Z47	X48	Y48	Z48	
500	2.5000	655.001953	1369.412842	-103.592377	653.807495	1346.133789	-437.494629	616.784363	1448.839355	-263.150879	617.822998	1283.816284	-265.020294	634.293640	1090.037231	-4.150133	743.532471	854.065430	-58.100918	592.201355	1073.570312	-546.473328	730.767700	883.022095	-438.232544	91.463036	1216.939697	-219.203888	236.137451	1251.454224	-412.458984	270.903656	1192.741699	-92.560738	243.092133	1192.630737	-391.573730	286.674805	1145.647583	-124.464569	129.689713	1244.134155	-168.349655	110.768097	1263.566162	-269.471741	195.531769	1073.466064	-70.945007	190.862106	1130.241089	-447.821167	236.403336	960.334900	-53.805000	265.725983	883.292297	-60.799656	291.920776	797.741699	-68.772255	317.778534	900.907043	-74.203918	300.248230	680.805603	-93.168159	250.016098	576.285889	-60.294624	229.405533	494.282776	-64.617271	200.241638	410.599823	-74.264816	277.814392	481.139648	-98.628746	155.759094	303.401031	-97.523643	194.106567	299.053955	-170.448425	115.490807	313.263062	-150.472092	297.780548	111.856865	-133.967209	200.233047	161.306107	-66.455406	283.449677	1052.166992	-465.233276	370.170044	1032.549438	-473.413757	384.453156	1083.162964	-457.869110	450.207855	1001.402527	-465.560272	539.241211	925.407532	-455.299927	449.072052	864.939148	-473.550049	393.086304	798.086487	-461.338623	337.546326	736.236389	-441.825470	438.975281	766.105591	-436.486847	253.793762	635.742615	-416.919312	284.467133	633.128357	-336.252167	193.741623	629.389404	-371.751373	414.439331	461.685272	-368.657410	317.494476	500.570648	-439.356903	-224.007156	893.267456	-251.138260	-12.487277	85.226234	-455.896667	-21.447128	80.898735	-55.742065	
501	2.5050	655.583069	1367.856201	-104.007744	653.603271	1346.451904	-437.770813	617.379028	1448.207520	-263.304291	617.887085	1283.141724	-265.815277	634.265686	1088.841064	-3.302519	742.921875	853.144104	-58.874817	588.899292	1073.461182	-546.611572	730.210144	884.501526	-438.592987	91.659111	1218.986694	-218.297928	236.107101	1253.483521	-411.275024	270.682343	1194.294556	-91.650406	242.494888	1193.612427	-390.696136	286.394165	1146.839600	-123.612823	129.748703	1245.846436	-167.196381	110.712074	1265.743164	-268.455017	195.786530	1074.810547	-69.998024	189.443970	1132.768921	-446.501526	238.867386	961.403992	-53.894398	269.262177	884.802795	-61.323471	296.650024	799.722717	-70.196510	320.941071	903.244690	-74.765411	304.298309	683.088806	-93.625542	251.888412	579.604736	-60.846912	229.500748	498.068146	-65.110664	198.580826	415.004669	-74.604721	277.797455	483.772095	-98.783966	151.820099	308.549133	-96.978943	200.502258	307.660339	-167.522781	111.821281	319.395172	-151.217957	287.899017	112.461411	-134.024460	192.005005	164.945114	-66.609734	281.865143	1053.522217	-463.154297	368.408081	1033.461792	-470.796570	383.001923	1084.084229	-456.015167	448.473236	1002.073975	-463.026123	539.765076	926.639160	-450.756561	450.158478	863.950562	-470.612122	395.389648	795.859253	-459.397705	340.552704	732.985291	-440.767181	441.664154	764.726440	-434.259705	257.690094	630.427551	-416.437622	288.228943	628.308594	-336.049988	197.329102	621.685425	-371.749207	423.725128	462.075073	-368.780701	325.367096	497.333313	-439.271759	-223.979660	893.354187	-250.990906	-12.489532	85.283455	-455.863251	-21.418438	80.937096	-55.693447	
502	2.5100	655.989807	1366.432495	-104.345551	653.189331	1346.744141	-438.036469	617.862732	1447.557739	-263.507782	617.840820	1282.423950	-266.732758	633.737183	1087.668335	-2.347152	742.648315	852.840454	-58.480545	586.137817	1073.496094	-546.800659	729.760437	885.756287	-438.832489	91.631363	1221.059448	-217.303192	236.210907	1255.498901	-410.125793	270.579346	1195.807129	-90.714722	242.013351	1194.344971	-389.871552	286.468079	1147.876221	-122.654289	129.809448	1247.540405	-166.163147	110.761238	1267.767456	-267.556610	195.940018	1076.035767	-68.998680	188.083466	1135.300293	-445.141357	241.448883	962.447998	-54.057705	273.122498	886.388550	-62.044880	301.971802	801.787720	-71.869797	324.400848	905.646301	-75.257225	309.122406	685.546631	-94.238068	254.509628	583.054871	-61.511841	230.279663	502.066101	-65.812546	197.395615	419.775055	-75.171257	278.255402	486.588287	-99.294678	147.640656	313.984711	-96.934029	196.033249	311.592926	-168.131241	107.695412	325.577240	-151.088913	278.130432	113.822838	-134.222504	183.949875	169.210938	-66.916245	280.324158	1054.462524	-461.067200	366.697571	1033.915283	-468.344452	381.561768	1084.611816	-453.884705	446.565430	1002.005798	-460.533905	539.231628	926.270569	-447.090118	451.007355	861.905640	-467.288849	397.235016	792.672363	-457.349030	343.384399	728.902039	-439.382599	443.918823	762.084045	-431.972870	261.049530	624.271179	-415.996277	291.259674	622.858826	-335.435669	200.621964	613.087158	-371.768250	432.618561	462.070160	-368.774750	332.899078	493.484222	-439.364227	-223.965927	893.404846	-250.923111	-12.496182	85.313789	-455.840210	-21.419165	80.962883	-55.654613	
503	2.5150	656.200439	1365.350464	-104.667191	652.586670	1347.005737	-438.287506	618.202026	1446.894287	-263.747589	617.610107	1281.724365	-267.622192	632.642151	1086.524658	-1.353842	742.710632	852.933594	-57.237900	583.901672	1073.799438	-547.076233	729.228760	886.873718	-439.003143	91.682533	1223.038696	-216.352325	236.305313	1257.460083	-408.864655	270.451904	1197.197388	-89.868134	241.643005	1194.835327	-389.103027	286.080811	1148.829468	-121.893814	129.878830	1249.114746	-165.192352	111.006989	1269.673218	-266.756744	196.030899	1077.253784	-68.066544	186.709427	1137.623169	-443.534149	244.295715	963.441895	-53.975952	277.314423	887.895447	-62.814404	307.705933	803.864380	-73.463242	328.066437	908.151184	-75.687119	314.657623	687.920471	-95.124084	257.746002	586.566895	-62.269085	231.498627	506.158386	-66.553436	196.560791	424.763153	-75.920845	278.869141	489.623535	-100.328239	143.357712	319.840851	-97.053802	191.928009	316.279449	-168.858429	103.289055	331.968262	-151.338043	268.542694	116.008896	-134.402771	175.981049	173.979080	-67.348282	278.696716	1054.923828	-459.082886	364.984985	1033.745850	-465.941742	380.137421	1084.324219	-451.435852	444.497559	1001.151367	-458.100098	538.387512	924.535339	-443.625610	451.408447	858.723572	-463.883881	398.659790	788.474121	-455.216553	345.757355	723.830505	-437.669983	445.670105	758.466248	-429.752441	264.326324	616.575806	-415.098450	293.953766	616.539673	-334.738586	203.729401	603.574890	-371.840149	441.072479	461.442932	-368.946228	340.264709	488.940002	-439.642578	-223.954773	893.418579	-250.883484	-12.500967	85.324821	-455.826935	-21.393013	80.954697	-55.661816	
